<?xml version="1.0" encoding="UTF-8"?>
<svg version="1.1" viewBox="0 0 2048 506" width="1507" height="373" xmlns="http://www.w3.org/2000/svg">
<path transform="translate(0)" d="m0 0h2048v506h-2048z" fill="#FEFEFE"/>
<path transform="translate(238,75)" d="m0 0h25l9 4 3 8 5 27 13 4 17 7 11-7 16-12h5l11 9 10 10 7 9 1 4-2 7-15 21 1 6 6 12 4 12 15 4 16 3 6 5v39l-5 6-5 2-25 4-5 10-6 15-3 7 7 8 10 14v10l-9 11-6 5-10-3-17-7-10-5v-7l5-12 9-12 6-13 4-16 1-15-2-11v-11l1-11v-13l-5-20-8-15-7-7-11-8-8-8-13-8-14-6-9-2-15-1h-12l-10 2-19 8-11 7-14 11-8 8-7 10-8 16-4 15-1 7-1 18-5 15v12l4 15 6 16 6 10 9 23-1 3-24 12-7 3-5-1-12-11-1-9 4-8 12-17 1-4-8-16-4-12-20-4-13-3-3-2v-41l5-6 10-3 20-3 4-7 4-11 6-13-11-15-6-9-1-9 5-7 8-7 11-11 6-3 5 1 16 11 6 4 5 2v2h2l1-3 11-5 14-5h2l2-16 4-17 4-4z" fill="#FE4E04"/>
<path transform="translate(244,150)" d="m0 0h16l11 3 13 7 10 9 6 5 7 4 7 8 4 12 1 6v15l-2 16v9l3 3v9l-3 16-5 12-3 4-6 1-4 16-7 14-9 10-7 6-8 4-15 4h-11l-19-6-11-6-10-10-6-10-10-26-6-8-6-18-1-12 2-5 6-4v-6l-2-4v-15l4-16 6-12 7-9 11-10 16-10 14-5z" fill="#FE4D03"/>
<path transform="translate(295,335)" d="m0 0 4 1 15 9 15 7 35 12 9 6 6 9 4 9v8l-7 9-8 8-7 8-14 11-18 11-15 8-16 6-22 5-15 2h-29l-23-3-18-5-21-9-17-9-9-7-14-12-8-8-7-8-5-6v-8l5-11 6-8 5-4 15-6 29-10 18-10 7-4h4l10 31 13 41 4 16 3-1 3-9 6-17 2-3h-2l-8-14-2-7 1-9 5-6 4-2h17l6 2 4 5 1 3v7l-4 10-5 9v7l7 20 3 7 6-21 10-32 9-29z" fill="#FE4D03"/>
<path transform="translate(1099,188)" d="m0 0h20l14 3 12 3 12 6 7 6 5 9 2 8v10l-4 11-6 10-6 4v2l10 6 8 7 5 9 3 9v17l-4 12-7 11-8 7-10 6-12 4-15 3h-17l-14-3-13-5-11-8-8-10-6-13-3-12v-104l9-3 25-4z" fill="#392F21"/>
<path transform="translate(580,189)" d="m0 0h26l18 4 12 5 10 9 4 5 3 9v13l-5 10-8 6-3 1h-18l-8-4-1-1v-19l-4-8-5-3h-13l-5 3-4 5v11l6 9 8 6 16 7 17 6 16 8 10 8 6 9 3 10v14l-4 11-6 8-9 8-12 6-14 4-15 2h-16l-20-3-15-5-10-6-5-4-6-12-1-4v-9l4-8 8-7 5-2h11l14 3 2 1 2 18 4 8 8 5 2 1h9l10-7 3-6v-8l-8-9-17-9-19-8-19-10-10-9-6-11-1-5v-15l4-11 4-6 7-8 10-7 13-6z" fill="#392F21"/>
<path transform="translate(1524,193)" d="m0 0h43l1 96 1 23 4 17 5 4v5l-4 5-12 6-3 1h-12l-9-3-6-4-6-10-2-5-11 13-8 6-8 3h-17l-12-7-9-10-6-13-4-16v-25l4-15 7-13 7-8 10-6 12-3 11 1 10 5 8 7v2l4 2 1-57z" fill="#392F21"/>
<path transform="translate(672,193)" d="m0 0h43l1 61 7-8 14-9 5-2h16l11 4 5 4 5 8 3 9v11l-4 10-7 8-7 4-7 1 2 5 5 9 8 10 8 7 14 8-1 5-7 6-12 5-7 2h-9l-13-4-8-6-8-9-6-14-2-9v-14l5-2 8-2 6-4 2-5v-10l-3-5-5-3-7 1-6 4-4 8-1 3-1 65-1 1h-41l-1-1z" fill="#392F21"/>
<path transform="translate(1209,234)" d="m0 0h8l10 4 10 9 4 8 1 5 1 54 3 5 4 2 6-4 4-8 2-9 1-61h44l-1 34v32l2 15 4 9 5 4v5l-5 5-8 5-8 3h-8l-11-4-8-7-5-10v-3h-2l-2 5-8 10-9 6-9 3h-10l-9-4-6-4-6-9-2-4-1-6-1-45-3-14-5-8-5-5 1-6 7-7 9-4z" fill="#392F21"/>
<path transform="translate(1631,235)" d="m0 0h24l14 4 10 6 7 6 5 9 3 9-1 10-3 8-6 8-11 7-10 3-10 1h-17l-8-1 4 8 9 6 8 2h19l15-5 6-3 3 1-2 9-7 9-9 8-12 7-9 3h-26l-11-4-11-7-11-11-7-12-4-15v-18l4-13 6-11 10-11 11-7 13-5z" fill="#392F21"/>
<path transform="translate(1855,234)" d="m0 0h11l14 3 12 5 9 6 5 9v10l-4 6-5 5-5 2h-14l-7-1-1-1-1-13-2-5-7-3-7 2-4 6-1 4h2l3 6 16 7 14 3 3 2 9 4 8 6 6 8 2 6v10l-3 8-9 10-10 6-8 3-17 3h-21l-19-5-8-4-5-4-4-7-1-4v-8l3-6 7-6 2-1h24l1 1 1 12 3 6 4 3 5 1 6-2 4-5-1-7-8-6-26-9-11-6-7-7-5-11v-14l5-10 10-9 10-5 13-3z" fill="#392F21"/>
<path transform="translate(932,193)" d="m0 0h43l1 1 1 116 3 14 1 5 5 2 3 5-6 7-9 5-9 3h-9l-12-5-6-5-5-10-2-9v-128z" fill="#392F21"/>
<path transform="translate(1390,193)" d="m0 0h44l1 113 2 14 2 5v4l5 2 3 3-1 4-9 8-10 4-4 1h-8l-10-4-6-4-5-6-4-11-1-98v-28z" fill="#392F21"/>
<path transform="translate(866,193)" d="m0 0h38l6 1 1 81 1 37 2 11 3 6 5 4v5l-9 8-13 5h-9l-12-5-7-6-4-8-2-9z" fill="#392F21"/>
<path transform="translate(1776,234)" d="m0 0h8l8 3 5 4 4 8 1 4v12l-4 10-9 8-9 4-7-1-8-4-1-7v-10l-8 1-2 20-1 59-1 1h-43v-73l-2-9-6-10-4-5 8-9 10-5h17l10 5 7 9 3 7 3-4 6-9 9-7z" fill="#392F21"/>
<path transform="translate(360,201)" d="m0 0 18 1 8 1 3 5 2 4v3h2v3h2v2h3l2-6 2 4v29l-5 6-5 2-25 4-5 10-6 15-3 7 7 8 10 14v10l-9 11-6 5-10-3-17-7-10-5v-7l5-12 9-12 6-13 4-16 1-8h2l-2-20v-12l1-14 3-1 5 3 9 19 6 1-1-9-6-19z" fill="#FE4D04"/>
<path transform="translate(815,235)" d="m0 0h14l10 5 8 9 3 8 1 6v82l-1 1h-43l-1-1v-74l-2-9-6-8-3-5 8-9z" fill="#392F21"/>
<path transform="translate(1339,235)" d="m0 0h13l12 6 7 9 3 9v86l-4 1-40-1v-34l1-9v-25l-3-15-9-12 2-4 8-7z" fill="#392F21"/>
<path transform="translate(181,203)" d="m0 0h1v24l7-2 14-5 6 1 10 5 4 5 2 4-1 4-6 2-3-1-1-5-8-4-9 1-9 6-1 9 7 20 4 8 3 3h8l12-5 2-5v-6l-14-1-1-4 5-5 14-4 3 1 6 16-1 6-6 9-5 4-15 5-8 1-6-3h-2l-1 11-2-3-4-10-6-8-6-18-1-12 2-5 6-4v-6l-2-4v-15z" fill="#FE6628"/>
<path transform="translate(274,193)" d="m0 0 4 1 7 14 5 11 3 2 1 9 2 9 3 9 1 2v7l-7 1-12-9-5-4-5-5-4-3v-2l-4-2-3-3-3-1-4-5v7l11 31 1 7-1 1h-7l-4-10-5-11-5-6v-8l-4-13-3-7v-7l3-2 6 1 18 14 12 11 7 5 1-3-4-13-4-9-4-13 1-4z" fill="#FF6729"/>
<path transform="translate(819,188)" d="m0 0h9l9 3 7 5 5 10v7l-4 8-9 6-8 2h-8l-8-2-9-6-3-5-1-10 4-8 8-7z" fill="#392F21"/>
<path transform="translate(1344,188)" d="m0 0h8l11 4 7 7 3 6v8l-3 6-7 6-6 3h-19l-9-5-4-5-2-10 2-8 8-8 6-3z" fill="#392F21"/>
<path transform="translate(1100,276)" d="m0 0h14l10 4 8 7 4 10v10l-4 10-5 5-7 3h-10l-5-3-5-9-1-6v-30z" fill="#FEFEFE"/>
<path transform="translate(1505,264)" d="m0 0h8l5 3 4 7 2 8v21l-3 10-4 6-4 2h-10l-5-5-4-8-1-6v-21l4-11 6-5z" fill="#FEFEFE"/>
<path transform="translate(342,169)" d="m0 0h3l6 12 5 12 4 1 3-4 2 6 15 4 16 3 6 5v10l-2-2-2 4h-3v-2h-2v-3h-2l-5-11-26-3 7 22 1 9-5 1-4-4-8-17-6-2-1 14v12l1 20h-1l-2-15-1-3v-11l1-11v-13l-5-20-6-13 4 2 3 2v2h2z" fill="#FF6729"/>
<path transform="translate(1100,212)" d="m0 0h13l8 4 5 7 1 4v8l-5 10-8 6-7 2h-8v-40z" fill="#FEFEFE"/>
<path transform="translate(153,235)" d="m0 0 1 3-2 7v12l4 15 6 16 6 10 4 10v2l-3-1-4-8-1 3-3-1-4-8-5-9-5-11-3-13-3-8-1-6v-5h7l3-5z" fill="#FF6729"/>
<path transform="translate(1642,258)" d="m0 0 7 2 4 5 1 5-3 8-7 6-10 2h-7l-1-1v-7l3-9 7-8z" fill="#FEFEFE"/>
<path transform="translate(304,177)" d="m0 0 5 3 5 6 4 12 1 6v15l-2 16h-1l-2-13-3-4-2-13-5-14v-10l-1-3z" fill="#FF6729"/>
<path transform="translate(320,349)" d="m0 0 9 3 35 12 5 3-3 1-21-7-3-2-10-2-11-5z" fill="#FF6729"/>
<path transform="translate(238,75)" d="m0 0h25l9 4-1 2-5-2h-36l-5 4 2-4 5-3z" fill="#FE6628"/>
<path transform="translate(157,107)" d="m0 0 5 1 16 11 6 4 5 2v2l2 1-6-1-11-7-3-3-6-3-4-3-8-1z" fill="#FF6729"/>
<path transform="translate(244,150)" d="m0 0h16l11 3 6 3-3 1-7-2-4-2-26-1v-1z" fill="#FF6729"/>
<path transform="translate(281,115)" d="m0 0 7 1 19 8 3 1v2h-4v-2l-8-1-2-2-10-3z" fill="#FF6729"/>
<path transform="translate(195,336)" d="m0 0h4l5 15v3l-3-1-3-14-10 2 3-3z" fill="#FF6729"/>
<path transform="translate(259,338)" d="m0 0 5 1-3 2-8 2h-11v-1l8-1 2-2z" fill="#FF6729"/>
<path transform="translate(295,335)" d="m0 0 4 1 5 4-9 1-2 2 1-7z" fill="#FF6729"/>
<path transform="translate(112,384)" d="m0 0h1v10l1 4h-3l-1-1v-8z" fill="#FF6729"/>
<path transform="translate(304,340)" d="m0 0 5 2 11 6-3 1-12-6z" fill="#FF6729"/>
<path transform="translate(296,120)" d="m0 0 6 2 8 3v2h-4v-2l-8-1z" fill="#FE753D"/>
<path transform="translate(231,417)" d="m0 0 1 4-5 6-3-1v-5l2 3 3-1z" fill="#FF6729"/>
</svg>
